<?xml version="1.0" encoding="UTF-8"?>
<svg id="Layer_2" data-name="Layer 2" xmlns="http://www.w3.org/2000/svg" xmlns:xlink="http://www.w3.org/1999/xlink" viewBox="0 0 1000 1000">
  <defs>
    <style>
      .cls-1 {
        fill: none;
      }

      .cls-2 {
        fill: #060607;
      }

      .cls-3 {
        fill: url(#linear-gradient);
      }

      .cls-4 {
        clip-path: url(#clippath-1);
      }

      .cls-5 {
        fill: #fff;
      }

      .cls-6 {
        fill: #8e9aaf;
      }

      .cls-7 {
        fill: #ff9500;
      }

      .cls-8 {
        fill: #1e8a4c;
      }

      .cls-9 {
        clip-path: url(#clippath);
      }

      .cls-10 {
        fill: #40c8e0;
      }
    </style>
    <clipPath id="clippath">
      <rect class="cls-1" width="1000" height="1000"/>
    </clipPath>
    <clipPath id="clippath-1">
      <rect class="cls-1" width="1000" height="1000" rx="225" ry="225"/>
    </clipPath>
    <linearGradient id="linear-gradient" x1="-298.67" y1="-577.62" x2="-297.67" y2="-577.62" gradientTransform="translate(705980.3951 364674.4898) rotate(90) scale(1221.355 -1221.355)" gradientUnits="userSpaceOnUse">
      <stop offset="0" stop-color="#0a4f97"/>
      <stop offset="1" stop-color="#06294f"/>
    </linearGradient>
  </defs>
  <g id="Layer_1-2" data-name="Layer 1">
    <g id="WindLImit_AppLogo_OUTLINE" data-name="WindLImit AppLogo OUTLINE">
      <g class="cls-9">
        <g class="cls-4">
          <rect class="cls-3" x="-201.21" y="-201.21" width="1402.42" height="1402.42" transform="translate(-201.21 408.88) rotate(-37.6)"/>
          <path class="cls-2" d="M454.27,255.49h91.46c11.04,0,20,8.95,20,20v449.01c0,11.05-8.96,20-20,20h-91.46c-11.05,0-20-8.95-20-20v-449.01c0-11.05,8.95-20,20-20"/>
          <path class="cls-5" d="M500,657.22c-2.61,0-4.73-2.12-4.73-4.73v-21.03c0-2.61,2.12-4.73,4.73-4.73s4.73,2.12,4.73,4.73v21.03c0,2.61-2.12,4.73-4.73,4.73M500,594.12c-2.61,0-4.73-2.12-4.73-4.73v-21.03c0-2.61,2.12-4.73,4.73-4.73s4.73,2.12,4.73,4.73v21.03c0,2.61-2.12,4.73-4.73,4.73M500,531.02c-2.61,0-4.73-2.12-4.73-4.73v-21.03c0-2.61,2.12-4.73,4.73-4.73s4.73,2.12,4.73,4.73v21.03c0,2.61-2.12,4.73-4.73,4.73M500,467.93c-2.61,0-4.73-2.12-4.73-4.73v-21.03c0-2.61,2.12-4.73,4.73-4.73s4.73,2.12,4.73,4.73v21.03c0,2.61-2.12,4.73-4.73,4.73M500,404.83c-2.61,0-4.73-2.12-4.73-4.73v-21.03c0-2.61,2.12-4.73,4.73-4.73s4.73,2.12,4.73,4.73v21.03c0,2.61-2.12,4.73-4.73,4.73M500,341.73c-2.61,0-4.73-2.12-4.73-4.73v-21.03c0-2.61,2.12-4.73,4.73-4.73s4.73,2.12,4.73,4.73v21.03c0,2.61-2.12,4.73-4.73,4.73"/>
          <polygon class="cls-7" points="283.37 500 450.68 412.86 450.68 587.14 283.37 500"/>
          <polygon class="cls-8" points="500 753.34 433.77 614.91 566.23 613.91 500 753.34"/>
          <path class="cls-6" d="M890.34,335.08c-21.34-50.45-51.88-95.76-90.78-134.65-38.9-38.9-84.2-69.44-134.65-90.78-52.26-22.1-107.74-33.31-164.92-33.31s-112.66,11.21-164.91,33.31c-50.45,21.34-95.75,51.88-134.65,90.78-38.89,38.89-69.44,84.2-90.77,134.65-22.1,52.26-33.31,107.74-33.31,164.91s11.21,112.66,33.31,164.91c21.34,50.45,51.88,95.76,90.77,134.65,38.9,38.89,84.2,69.44,134.65,90.77,52.26,22.1,107.74,33.31,164.91,33.31s112.66-11.21,164.92-33.31c50.45-21.34,95.75-51.88,134.65-90.77,38.89-38.89,69.43-84.2,90.78-134.65,22.1-52.25,33.31-107.74,33.31-164.91s-11.21-112.66-33.31-164.91M878.37,659.85c-20.68,48.9-50.29,92.82-87.99,130.52-37.71,37.71-81.62,67.31-130.52,88-50.65,21.42-104.43,32.28-159.85,32.28s-109.21-10.86-159.85-32.28c-48.9-20.68-92.82-50.29-130.52-87.99-37.7-37.71-67.31-81.62-87.99-130.52-21.42-50.64-32.28-104.43-32.28-159.85s10.86-109.21,32.28-159.85c20.68-48.9,50.29-92.82,87.99-130.52s81.62-67.31,130.52-87.99c50.64-21.42,104.43-32.28,159.85-32.28s109.21,10.86,159.85,32.28c48.9,20.68,92.82,50.29,130.52,87.99,37.71,37.7,67.31,81.62,87.99,130.52,21.42,50.64,32.28,104.43,32.28,159.85s-10.86,109.21-32.28,159.85"/>
          <path class="cls-5" d="M864.09,346.19c-19.9-47.06-48.39-89.31-84.68-125.6-36.29-36.29-78.54-64.78-125.6-84.68-48.72-20.61-100.47-31.06-153.81-31.06s-105.09,10.45-153.81,31.06c-47.05,19.9-89.31,48.39-125.6,84.68-36.29,36.29-64.78,78.54-84.68,125.6-20.61,48.72-31.06,100.47-31.06,153.81s10.45,105.09,31.06,153.81c19.9,47.06,48.39,89.31,84.68,125.6,36.29,36.29,78.54,64.78,125.6,84.68,48.72,20.61,100.47,31.06,153.81,31.06s105.09-10.45,153.81-31.06c47.05-19.9,89.31-48.39,125.6-84.68,36.29-36.29,64.78-78.54,84.68-125.6,20.61-48.72,31.06-100.47,31.06-153.81s-10.45-105.09-31.06-153.81M846.54,638.65l-22.48-9.39c-2.29-.96-4.93.12-5.89,2.42-.96,2.29.12,4.93,2.42,5.89l22.49,9.4c-17.89,41.72-42.97,79.42-74.6,112.16l-42.37-43.28c-2.51-2.57-6.63-2.61-9.19-.1-2.57,2.51-2.61,6.63-.1,9.19l42.47,43.38c-32.79,31.71-70.54,56.84-112.34,74.77l-9.4-22.49c-.96-2.29-3.59-3.37-5.89-2.42-2.29.96-3.38,3.59-2.42,5.89l9.39,22.48c-40.69,16.3-83.54,25.18-127.64,26.45v-88.03c0-6.07-4.93-11-11-11s-11,4.93-11,11v88.03c-44.08-1.26-86.92-10.13-127.59-26.42l9.34-22.51c.95-2.29-.14-4.93-2.43-5.88-2.3-.96-4.93.14-5.88,2.43l-9.34,22.51c-41.82-17.92-79.59-43.07-112.39-74.79l42.47-43.38c2.51-2.57,2.47-6.68-.1-9.19-2.57-2.51-6.68-2.47-9.19.1l-42.37,43.28c-31.63-32.74-56.7-70.44-74.6-112.15l22.58-9.41c2.29-.96,3.38-3.59,2.42-5.89-.96-2.29-3.59-3.38-5.88-2.42l-22.58,9.4c-16.31-40.69-25.19-83.55-26.45-127.66h71.99c6.08,0,11-4.93,11-11s-4.92-11-11-11h-71.99c1.26-44.09,10.13-86.92,26.43-127.6l22.61,9.35c.56.23,1.14.34,1.72.34,1.77,0,3.44-1.05,4.16-2.78.95-2.3-.14-4.93-2.44-5.88l-22.6-9.35c17.89-41.74,42.98-79.45,74.62-112.21l42.37,43.28c1.27,1.3,2.96,1.95,4.65,1.95s3.28-.62,4.55-1.85c2.57-2.51,2.61-6.63.1-9.19l-42.47-43.38c32.8-31.72,70.57-56.86,112.38-74.79l9.35,22.6c.72,1.73,2.39,2.78,4.16,2.78.57,0,1.16-.11,1.72-.34,2.3-.95,3.39-3.58,2.44-5.88l-9.35-22.61c40.67-16.29,83.51-25.16,127.6-26.43v88.03c0,6.08,4.92,11,11,11s11-4.92,11-11v-88.03c44.11,1.26,86.97,10.14,127.66,26.45l-9.4,22.58c-.96,2.29.13,4.93,2.42,5.88.57.24,1.15.35,1.73.35,1.76,0,3.44-1.04,4.16-2.77l9.41-22.58c41.79,17.92,79.54,43.05,112.32,74.76l-42.47,43.38c-2.51,2.57-2.47,6.68.1,9.19,1.27,1.24,2.91,1.85,4.55,1.85s3.37-.65,4.65-1.95l42.37-43.28c31.65,32.76,56.73,70.48,74.63,112.22l-22.51,9.34c-2.29.95-3.38,3.58-2.43,5.88.72,1.73,2.39,2.78,4.16,2.78.57,0,1.16-.11,1.72-.34l22.51-9.34c16.29,40.67,25.16,83.5,26.42,127.59h-71.99c-6.08,0-11,4.92-11,11s4.92,11,11,11h71.99c-1.26,44.1-10.14,86.96-26.45,127.64"/>
          <polygon class="cls-10" points="691.47 309.62 761.09 42.99 949.85 213.83 691.47 309.62"/>
        </g>
      </g>
    </g>
  </g>
</svg>