<?xml version="1.0" encoding="UTF-8"?>
<svg id="Layer_2" data-name="Layer 2" xmlns="http://www.w3.org/2000/svg" xmlns:xlink="http://www.w3.org/1999/xlink" viewBox="0 0 1285.39 168.37">
  <defs>
    <style>
      .cls-1 {
        fill: none;
      }

      .cls-2 {
        clip-path: url(#clippath-1);
      }

      .cls-3 {
        clip-path: url(#clippath-2);
      }

      .cls-4 {
        fill: #fff;
      }

      .cls-5 {
        fill: #5d98d4;
      }

      .cls-6 {
        fill: #ff9500;
      }

      .cls-7 {
        clip-path: url(#clippath);
      }
    </style>
    <clipPath id="clippath">
      <rect class="cls-1" width="1285.39" height="168.37"/>
    </clipPath>
    <clipPath id="clippath-1">
      <rect class="cls-1" width="1285.39" height="168.37"/>
    </clipPath>
    <clipPath id="clippath-2">
      <rect class="cls-1" width="1285.39" height="168.37"/>
    </clipPath>
  </defs>
  <g id="Layer_1-2" data-name="Layer 1">
    <g id="WindLImit_TextMark_On_Dark" data-name="WindLImit TextMark On Dark">
      <g class="cls-7">
        <polygon class="cls-4" points="160.15 23.04 145.74 119.09 143.86 119.09 124.23 23.04 79.97 23.04 60.76 119.09 58.88 119.09 42.8 23.04 0 23.04 29.02 166.7 83.1 166.7 100.64 85.68 102.52 85.68 119.85 166.7 173.93 166.7 202.95 23.04 160.15 23.04"/>
        <path class="cls-4" d="M212.14,11.56h40.3v29.44h-40.3V11.56ZM212.14,60.21h40.09v106.49h-40.09V60.21Z"/>
        <g class="cls-2">
          <path class="cls-4" d="M270.64,166.7V60.21h38l.84,12.32h1.88c3.48-5.43,7.86-9.11,13.15-11.06,5.29-1.95,10.72-2.92,16.29-2.92,9.19,0,16.01,1.6,20.46,4.8,4.45,3.2,7.34,7.9,8.66,14.09,1.32,6.2,1.98,13.75,1.98,22.65v66.61h-39.46v-56.17c0-6.68-.21-11.45-.63-14.3-.42-2.85-1.39-4.62-2.92-5.32-1.53-.69-3.9-1.04-7.1-1.04-3.62,0-6.23.49-7.83,1.46-1.6.98-2.65,2.96-3.13,5.95-.49,2.99-.73,7.55-.73,13.68v55.75h-39.46Z"/>
          <path class="cls-4" d="M420.91,168.37c-7.8,0-14.17-1.53-19.11-4.59-4.94-3.06-8.56-8.56-10.86-16.49-2.3-7.94-3.45-19.07-3.45-33.41s1.15-25.51,3.45-33.51c2.3-8,5.92-13.61,10.86-16.81,4.94-3.2,11.38-4.8,19.31-4.8,5.71,0,10.99.73,15.87,2.19,4.87,1.46,9.05,4.91,12.53,10.34h1.88V11.56h39.46v155.14h-38l-.83-12.32h-2.09c-3.06,5.85-7.24,9.64-12.53,11.38-5.29,1.74-10.79,2.61-16.49,2.61M439.28,137.26c3.34,0,5.85-.42,7.52-1.25,1.67-.84,2.78-2.51,3.34-5.01.55-2.23.9-4.73,1.05-7.52.14-2.78.21-6.12.21-10.02s-.07-6.99-.21-9.71c-.14-2.71-.42-5.04-.84-6.99-.56-2.92-1.71-4.8-3.45-5.64-1.74-.83-4.28-1.25-7.62-1.25-3.9,0-6.72.38-8.46,1.15-1.74.77-2.82,2.82-3.24,6.16-.42,3.34-.63,8.77-.63,16.28s.21,12.94.63,16.29c.42,3.34,1.49,5.43,3.24,6.27,1.74.83,4.56,1.25,8.46,1.25"/>
        </g>
        <polygon class="cls-6" points="1136.39 166.76 1285.39 89.16 1136.39 11.56 1136.39 166.76"/>
        <polygon class="cls-5" points="527.11 166.76 527.11 11.56 556.24 11.56 556.24 142.75 624.94 142.75 624.94 166.76 527.11 166.76"/>
        <g class="cls-3">
          <path class="cls-5" d="M638.06,144.53h37.8v-70.26h-37.8v-22.24h66.26v92.5h35.13v22.24h-101.39v-22.24ZM690.09,34.24c-6.67,0-11.38-1.41-14.12-4.22-2.74-2.82-4.11-6.23-4.11-10.23v-5.34c0-4,1.37-7.41,4.11-10.23C678.71,1.41,683.42,0,690.09,0s11.37,1.41,14.12,4.22c2.74,2.82,4.11,6.23,4.11,10.23v5.34c0,4-1.37,7.41-4.11,10.23-2.74,2.82-7.45,4.22-14.12,4.22"/>
          <path class="cls-5" d="M755.06,166.76V52.03h23.57v15.79h1.33c1.78-5.04,4.34-9.37,7.67-13.01,3.34-3.63,8.04-5.45,14.12-5.45s10.37,1.67,13.79,5c3.41,3.33,5.63,8.04,6.67,14.12h1.11c1.92-5.19,4.78-9.67,8.56-13.45,3.78-3.78,9.15-5.67,16.12-5.67,8.45,0,14.53,3.04,18.23,9.11,3.7,6.08,5.56,15.05,5.56,26.91v81.38h-23.35v-78.05c0-6.67-.93-11.34-2.78-14.01-1.86-2.67-4.64-4-8.34-4-3.41,0-6.26,1.11-8.56,3.34-2.3,2.22-3.45,5.64-3.45,10.23v82.49h-23.57v-78.05c0-6.67-.89-11.34-2.67-14.01-1.78-2.67-4.52-4-8.23-4s-6.49,1.11-8.78,3.34c-2.3,2.22-3.45,5.64-3.45,10.23v82.49h-23.57Z"/>
          <path class="cls-5" d="M892.83,144.53h37.8v-70.26h-37.8v-22.24h66.26v92.5h35.13v22.24h-101.39v-22.24ZM944.86,34.24c-6.67,0-11.38-1.41-14.12-4.22-2.74-2.82-4.11-6.23-4.11-10.23v-5.34c0-4,1.37-7.41,4.11-10.23C933.48,1.41,938.19,0,944.86,0s11.37,1.41,14.12,4.22c2.74,2.82,4.11,6.23,4.11,10.23v5.34c0,4-1.37,7.41-4.11,10.23-2.74,2.82-7.45,4.22-14.12,4.22"/>
          <path class="cls-5" d="M1057.01,166.76c-10.97,0-19.05-2.9-24.24-8.69-5.19-5.8-7.78-13.3-7.78-22.51v-61.29h-33.35v-22.24h22.68c4.59,0,7.86-.92,9.78-2.78,1.92-1.85,2.89-5.15,2.89-9.9V11.56h26.46v40.47h46.69v22.24h-46.69v70.26h46.69v22.24h-43.14Z"/>
          <path class="cls-5" d="M1090.18,26.28v-11.84h-3.81v-2.88h11.53v2.88h-3.81v11.84h-3.91ZM1099.29,26.28v-14.72h4.27l3.04,5.92h.26l3.04-5.92h4.02v14.72h-3.35v-5.46l.31-4.63h-.21l-4.07,7.67-4.07-7.67h-.21l.31,4.63v5.46h-3.35Z"/>
        </g>
      </g>
    </g>
  </g>
</svg>